<?xml version="1.0" encoding="iso-8859-1"?>
<!-- Uploaded to: SVG Repo, www.svgrepo.com, Generator: SVG Repo Mixer Tools -->
<svg height="800px" width="800px" version="1.1" id="Layer_1" xmlns="http://www.w3.org/2000/svg" xmlns:xlink="http://www.w3.org/1999/xlink" 
	 viewBox="0 0 512 512" xml:space="preserve">
<g transform="translate(1 1)">
	<g>
		<path style="fill:#00DA6C;" d="M290.84,246.467h53.76c60.587-54.613,55.467-145.067,55.467-238.933
			c-29.867,4.267-61.44,38.4-87.893,84.48C330.093,138.947,327.533,191.853,290.84,246.467"/>
		<path style="fill:#00DA6C;" d="M290.84,246.467C351.427,156.013,319,71.533,255,7.533c-64,64-96.427,148.48-35.84,238.933H290.84z
			"/>
		<path style="fill:#00DA6C;" d="M165.4,246.467h53.76c-37.547-54.613-40.107-107.52-22.187-154.453
			c-25.6-46.08-57.173-80.213-87.04-84.48C109.933,101.4,104.813,191.853,165.4,246.467"/>
	</g>
	<polygon style="fill:#FFE100;" points="370.2,468.333 400.067,289.133 109.933,289.133 139.8,468.333 	"/>
	<polygon style="fill:#FFFFFF;" points="109.933,289.133 139.8,468.333 160.28,468.333 135.533,289.133 	"/>
	<polygon style="fill:#FFA800;" points="374.467,289.133 349.72,468.333 370.2,468.333 400.067,289.133 	"/>
	<polygon style="fill:#FFE100;" points="391.533,502.467 118.467,502.467 109.933,468.333 400.067,468.333 	"/>
	<polygon style="fill:#FFFFFF;" points="109.933,468.333 118.467,502.467 142.36,502.467 135.533,468.333 	"/>
	<polygon style="fill:#FFA800;" points="374.467,468.333 367.64,502.467 391.533,502.467 400.067,468.333 	"/>
	<polygon style="fill:#FFE100;" points="101.4,289.133 408.6,289.133 408.6,246.467 101.4,246.467 	"/>
	<polygon style="fill:#FFFFFF;" points="75.8,289.133 101.4,289.133 101.4,246.467 75.8,246.467 	"/>
	<polygon style="fill:#FFA800;" points="408.6,289.133 434.2,289.133 434.2,246.467 408.6,246.467 	"/>
	<path d="M434.2,297.667H75.8c-5.12,0-8.533-3.413-8.533-8.533v-42.667c0-5.12,3.413-8.533,8.533-8.533h358.4
		c5.12,0,8.533,3.413,8.533,8.533v42.667C442.733,294.253,439.32,297.667,434.2,297.667z M84.333,280.6h341.333V255H84.333V280.6z"
		/>
	<path d="M391.533,511H118.467c-4.267,0-7.68-2.56-8.533-6.827L101.4,470.04c-0.853-2.56,0-5.12,1.707-7.68
		c1.707-1.707,4.267-2.56,6.827-2.56h290.133c2.56,0,5.12,0.853,6.827,3.413c1.707,1.707,2.56,5.12,1.707,7.68l-8.533,34.133
		C399.213,508.44,395.8,511,391.533,511z M125.293,493.933h259.413l4.267-17.067H121.027L125.293,493.933z"/>
	<path d="M370.2,476.867H139.8c-4.267,0-7.68-3.413-8.533-6.827L101.4,290.84c0-2.56,0-5.12,1.707-6.827s4.267-3.413,6.827-3.413
		h290.133c2.56,0,5.12,0.853,6.827,3.413c1.707,1.707,2.56,4.267,1.707,6.827l-29.867,179.2
		C377.88,473.453,374.467,476.867,370.2,476.867z M146.627,459.8H362.52l27.307-162.133H120.173L146.627,459.8z"/>
	<path d="M178.2,348.867h-59.733c-5.12,0-8.533-3.413-8.533-8.533c0-5.12,3.413-8.533,8.533-8.533H178.2
		c5.12,0,8.533,3.413,8.533,8.533C186.733,345.453,183.32,348.867,178.2,348.867z"/>
	<path d="M220.867,348.867h-8.533c-5.12,0-8.533-3.413-8.533-8.533c0-5.12,3.413-8.533,8.533-8.533h8.533
		c5.12,0,8.533,3.413,8.533,8.533C229.4,345.453,225.987,348.867,220.867,348.867z"/>
	<path d="M263.533,417.133H255c-5.12,0-8.533-3.413-8.533-8.533c0-5.12,3.413-8.533,8.533-8.533h8.533
		c5.12,0,8.533,3.413,8.533,8.533C272.067,413.72,268.653,417.133,263.533,417.133z"/>
	<path d="M380.44,417.133h-82.773c-5.12,0-8.533-3.413-8.533-8.533c0-5.12,3.413-8.533,8.533-8.533h82.773
		c5.12,0,8.533,3.413,8.533,8.533C388.973,413.72,384.707,417.133,380.44,417.133z"/>
	<path d="M255,254.147c-5.12,0-8.533-3.413-8.533-8.533v-135.68c0-5.12,3.413-8.533,8.533-8.533s8.533,3.413,8.533,8.533v135.68
		C263.533,250.733,260.12,254.147,255,254.147z"/>
	<path d="M344.6,255h-53.76c-3.413,0-5.973-1.707-7.68-4.267c-1.707-2.56-1.707-5.973,0.853-8.533
		c32.427-48.64,39.253-97.28,20.48-146.773c-0.853-2.56-0.853-5.12,0.853-7.68C322.413,57.027,358.253,4.973,399.213-1
		c2.56,0,5.12,0,6.827,1.707c1.707,1.707,2.56,4.267,2.56,6.827c0,6.827,0,14.507,0,21.333c0,87.893,0.853,170.667-58.88,223.573
		C348.013,254.147,346.307,255,344.6,255z M306.2,237.933h34.987c51.2-48.64,51.2-126.293,50.347-209.067c0-3.413,0-6.827,0-10.24
		C369.347,27.16,344.6,52.76,321.56,92.867C339.48,141.507,333.507,190.147,306.2,237.933z"/>
	<path d="M310.467,255c-2.56,0-4.267-0.853-5.973-2.56c-3.413-3.413-2.56-8.533,0.853-11.947
		c36.693-32.427,40.107-73.387,45.227-124.587c2.56-29.867,5.973-63.147,16.213-100.693c1.707-4.267,5.973-6.827,10.24-5.973
		s6.827,5.973,5.973,10.24c-10.24,35.84-12.8,68.267-16.213,97.28c-5.12,52.907-9.387,98.133-51.2,134.827
		C313.88,254.147,312.173,255,310.467,255z"/>
	<path d="M290.84,255h-70.827c-2.56,0-5.12-1.707-6.827-3.413C157.72,169.667,170.52,80.92,249.88,1.56
		C250.733-0.147,252.44-1,255-1l0,0c2.56,0,4.267,0.853,5.973,2.56c79.36,79.36,92.16,168.107,36.693,250.027
		C295.96,253.293,293.4,255,290.84,255z M224.28,237.933h62.293C344.6,147.48,303.64,70.68,255.853,19.48
		C206.36,70.68,165.4,147.48,224.28,237.933z"/>
	<path d="M219.16,255H165.4c-1.707,0-4.267-0.853-5.973-2.56c-59.733-52.907-58.88-136.533-58.88-223.573
		C101.4,22.04,101.4,14.36,101.4,7.533c0-2.56,0.853-5.12,2.56-6.827C106.52-0.147,109.08-1,110.787-1
		c40.96,5.973,76.8,58.027,93.867,88.747c0.853,2.56,1.707,5.12,0.853,7.68c-18.773,48.64-11.947,98.133,21.333,145.92
		c1.707,2.56,1.707,5.973,0.853,8.533C225.987,253.293,222.573,255,219.16,255z M168.813,237.933H203.8
		c-28.16-47.787-33.28-96.427-15.36-145.067c-23.04-40.107-47.787-65.707-69.973-74.24c0,3.413,0,6.827,0,10.24
		C117.613,111.64,117.613,189.293,168.813,237.933z"/>
	<path d="M199.533,255c-1.707,0-4.267-0.853-5.973-2.56c-41.813-36.693-46.08-81.92-51.2-133.973
		c-1.707-29.013-5.12-61.44-15.36-96.427c-0.853-5.12,1.707-9.387,5.973-11.093c5.12-0.853,9.387,1.707,11.093,5.973
		c10.24,36.693,13.653,69.973,16.213,99.84c5.12,51.2,8.533,90.453,45.227,123.733c3.413,3.413,3.413,8.533,0.853,11.947
		C204.653,254.147,202.093,255,199.533,255z"/>
</g>
</svg>